<svg width="268" height="150" viewBox="0 0 268 150" fill="none" xmlns="http://www.w3.org/2000/svg">
<rect x="222" y="100" width="2" height="2" fill="#0000CC"/>
<rect x="224" y="100" width="2" height="2" fill="#0000CC"/>
<rect x="222" y="118" width="2" height="2" fill="#0000CC"/>
<rect x="224" y="118" width="2" height="2" fill="#0000CC"/>
<rect x="220" y="100" width="2" height="2" fill="#0000CC"/>
<rect x="220" y="118" width="2" height="2" fill="#0000CC"/>
<rect x="218" y="100" width="2" height="2" fill="#0000CC"/>
<rect x="218" y="118" width="2" height="2" fill="#0000CC"/>
<rect x="216" y="100" width="2" height="2" fill="#0000CC"/>
<rect x="216" y="118" width="2" height="2" fill="#0000CC"/>
<rect x="214" y="118" width="2" height="2" fill="#0000CC"/>
<rect x="212" y="118" width="2" height="2" fill="#0000CC"/>
<rect x="210" y="118" width="2" height="2" fill="#0000CC"/>
<rect x="208" y="118" width="2" height="2" fill="#0000CC"/>
<rect x="206" y="118" width="2" height="2" fill="#0000CC"/>
<rect x="204" y="118" width="2" height="2" fill="#0000CC"/>
<rect x="202" y="118" width="2" height="2" fill="#0000CC"/>
<rect x="200" y="118" width="2" height="2" fill="#0000CC"/>
<rect x="198" y="118" width="2" height="2" fill="#0000CC"/>
<rect x="196" y="118" width="2" height="2" fill="#0000CC"/>
<rect x="150" y="118" width="2" height="2" fill="#0000CC"/>
<rect x="152" y="118" width="2" height="2" fill="#0000CC"/>
<rect x="154" y="118" width="2" height="2" fill="#0000CC"/>
<rect x="156" y="118" width="2" height="2" fill="#0000CC"/>
<rect x="158" y="118" width="2" height="2" fill="#0000CC"/>
<rect x="160" y="118" width="2" height="2" fill="#0000CC"/>
<rect x="162" y="118" width="2" height="2" fill="#0000CC"/>
<rect x="164" y="118" width="2" height="2" fill="#0000CC"/>
<rect x="166" y="118" width="2" height="2" fill="#0000CC"/>
<rect x="168" y="118" width="2" height="2" fill="#0000CC"/>
<rect x="170" y="118" width="2" height="2" fill="#0000CC"/>
<rect x="172" y="118" width="2" height="2" fill="#0000CC"/>
<rect x="174" y="118" width="2" height="2" fill="#0000CC"/>
<rect x="176" y="118" width="2" height="2" fill="#0000CC"/>
<rect x="178" y="118" width="2" height="2" fill="#0000CC"/>
<rect x="180" y="118" width="2" height="2" fill="#0000CC"/>
<rect x="182" y="118" width="2" height="2" fill="#0000CC"/>
<rect x="184" y="118" width="2" height="2" fill="#0000CC"/>
<rect x="186" y="118" width="2" height="2" fill="#0000CC"/>
<rect x="188" y="118" width="2" height="2" fill="#0000CC"/>
<rect x="190" y="118" width="2" height="2" fill="#0000CC"/>
<rect x="192" y="118" width="2" height="2" fill="#0000CC"/>
<rect x="194" y="118" width="2" height="2" fill="#0000CC"/>
<rect x="148" y="118" width="2" height="2" fill="#0000CC"/>
<rect x="146" y="118" width="2" height="2" fill="#0000CC"/>
<rect x="144" y="118" width="2" height="2" fill="#0000CC"/>
<rect x="142" y="118" width="2" height="2" fill="#0000CC"/>
<rect x="140" y="118" width="2" height="2" fill="#0000CC"/>
<rect x="138" y="118" width="2" height="2" fill="#0000CC"/>
<rect x="136" y="118" width="2" height="2" fill="#0000CC"/>
<rect x="134" y="118" width="2" height="2" fill="#0000CC"/>
<rect x="132" y="118" width="2" height="2" fill="#0000CC"/>
<rect x="130" y="118" width="2" height="2" fill="#0000CC"/>
<rect x="128" y="118" width="2" height="2" fill="#0000CC"/>
<rect x="126" y="118" width="2" height="2" fill="#0000CC"/>
<rect x="124" y="118" width="2" height="2" fill="#0000CC"/>
<rect x="122" y="118" width="2" height="2" fill="#0000CC"/>
<rect x="120" y="118" width="2" height="2" fill="#0000CC"/>
<rect x="118" y="118" width="2" height="2" fill="#0000CC"/>
<rect x="116" y="118" width="2" height="2" fill="#0000CC"/>
<rect x="114" y="118" width="2" height="2" fill="#0000CC"/>
<rect x="112" y="118" width="2" height="2" fill="#0000CC"/>
<rect x="110" y="118" width="2" height="2" fill="#0000CC"/>
<rect x="108" y="118" width="2" height="2" fill="#0000CC"/>
<rect x="106" y="118" width="2" height="2" fill="#0000CC"/>
<rect x="104" y="118" width="2" height="2" fill="#0000CC"/>
<rect x="102" y="118" width="2" height="2" fill="#0000CC"/>
<rect x="100" y="118" width="2" height="2" fill="#0000CC"/>
<rect x="98" y="118" width="2" height="2" fill="#0000CC"/>
<rect x="96" y="118" width="2" height="2" fill="#0000CC"/>
<rect x="94" y="118" width="2" height="2" fill="#0000CC"/>
<rect x="92" y="118" width="2" height="2" fill="#0000CC"/>
<rect x="90" y="118" width="2" height="2" fill="#0000CC"/>
<rect x="88" y="118" width="2" height="2" fill="#0000CC"/>
<rect x="86" y="118" width="2" height="2" fill="#0000CC"/>
<rect x="84" y="118" width="2" height="2" fill="#0000CC"/>
<rect x="82" y="118" width="2" height="2" fill="#0000CC"/>
<rect x="80" y="118" width="2" height="2" fill="#0000CC"/>
<rect x="78" y="118" width="2" height="2" fill="#0000CC"/>
<rect x="76" y="118" width="2" height="2" fill="#0000CC"/>
<rect x="74" y="118" width="2" height="2" fill="#0000CC"/>
<rect x="72" y="118" width="2" height="2" fill="#0000CC"/>
<rect x="70" y="100" width="2" height="2" fill="#0000CC"/>
<rect x="72" y="100" width="2" height="2" fill="#0000CC"/>
<rect x="74" y="100" width="2" height="2" fill="#0000CC"/>
<rect x="76" y="100" width="2" height="2" fill="#0000CC"/>
<rect x="78" y="100" width="2" height="2" fill="#0000CC"/>
<rect x="80" y="100" width="2" height="2" fill="#0000CC"/>
<rect x="82" y="100" width="2" height="2" fill="#0000CC"/>
<rect x="84" y="100" width="2" height="2" fill="#0000CC"/>
<rect x="86" y="100" width="2" height="2" fill="#0000CC"/>
<rect x="88" y="100" width="2" height="2" fill="#0000CC"/>
<rect x="90" y="100" width="2" height="2" fill="#0000CC"/>
<rect x="92" y="100" width="2" height="2" fill="#0000CC"/>
<rect x="94" y="100" width="2" height="2" fill="#0000CC"/>
<rect x="96" y="100" width="2" height="2" fill="#0000CC"/>
<rect x="98" y="100" width="2" height="2" fill="#0000CC"/>
<rect x="100" y="100" width="2" height="2" fill="#0000CC"/>
<rect x="102" y="100" width="2" height="2" fill="#0000CC"/>
<rect x="104" y="100" width="2" height="2" fill="#0000CC"/>
<rect x="106" y="100" width="2" height="2" fill="#0000CC"/>
<rect x="108" y="100" width="2" height="2" fill="#0000CC"/>
<rect x="110" y="100" width="2" height="2" fill="#0000CC"/>
<rect x="112" y="100" width="2" height="2" fill="#0000CC"/>
<rect x="114" y="100" width="2" height="2" fill="#0000CC"/>
<rect x="116" y="100" width="2" height="2" fill="#0000CC"/>
<rect x="118" y="100" width="2" height="2" fill="#0000CC"/>
<rect x="120" y="100" width="2" height="2" fill="#0000CC"/>
<rect x="122" y="100" width="2" height="2" fill="#0000CC"/>
<rect x="124" y="100" width="2" height="2" fill="#0000CC"/>
<rect x="126" y="100" width="2" height="2" fill="#0000CC"/>
<rect x="128" y="100" width="2" height="2" fill="#0000CC"/>
<rect x="130" y="100" width="2" height="2" fill="#0000CC"/>
<rect x="132" y="100" width="2" height="2" fill="#0000CC"/>
<rect x="134" y="100" width="2" height="2" fill="#0000CC"/>
<rect x="136" y="100" width="2" height="2" fill="#0000CC"/>
<rect x="138" y="100" width="2" height="2" fill="#0000CC"/>
<rect x="140" y="100" width="2" height="2" fill="#0000CC"/>
<rect x="142" y="100" width="2" height="2" fill="#0000CC"/>
<rect x="144" y="100" width="2" height="2" fill="#0000CC"/>
<rect x="146" y="100" width="2" height="2" fill="#0000CC"/>
<rect x="148" y="100" width="2" height="2" fill="#0000CC"/>
<rect x="150" y="100" width="2" height="2" fill="#0000CC"/>
<rect x="152" y="100" width="2" height="2" fill="#0000CC"/>
<rect x="154" y="100" width="2" height="2" fill="#0000CC"/>
<rect x="156" y="100" width="2" height="2" fill="#0000CC"/>
<rect x="158" y="100" width="2" height="2" fill="#0000CC"/>
<rect x="160" y="100" width="2" height="2" fill="#0000CC"/>
<rect x="162" y="100" width="2" height="2" fill="#0000CC"/>
<rect x="164" y="100" width="2" height="2" fill="#0000CC"/>
<rect x="166" y="100" width="2" height="2" fill="#0000CC"/>
<rect x="168" y="100" width="2" height="2" fill="#0000CC"/>
<rect x="170" y="100" width="2" height="2" fill="#0000CC"/>
<rect x="172" y="100" width="2" height="2" fill="#0000CC"/>
<rect x="174" y="100" width="2" height="2" fill="#0000CC"/>
<rect x="176" y="100" width="2" height="2" fill="#0000CC"/>
<rect x="178" y="100" width="2" height="2" fill="#0000CC"/>
<rect x="180" y="100" width="2" height="2" fill="#0000CC"/>
<rect x="182" y="100" width="2" height="2" fill="#0000CC"/>
<rect x="184" y="100" width="2" height="2" fill="#0000CC"/>
<rect x="186" y="100" width="2" height="2" fill="#0000CC"/>
<rect x="188" y="100" width="2" height="2" fill="#0000CC"/>
<rect x="190" y="100" width="2" height="2" fill="#0000CC"/>
<rect x="192" y="100" width="2" height="2" fill="#0000CC"/>
<rect x="194" y="100" width="2" height="2" fill="#0000CC"/>
<rect x="196" y="100" width="2" height="2" fill="#0000CC"/>
<rect x="198" y="100" width="2" height="2" fill="#0000CC"/>
<rect x="200" y="100" width="2" height="2" fill="#0000CC"/>
<rect x="202" y="100" width="2" height="2" fill="#0000CC"/>
<rect x="204" y="100" width="2" height="2" fill="#0000CC"/>
<rect x="206" y="100" width="2" height="2" fill="#0000CC"/>
<rect x="208" y="100" width="2" height="2" fill="#0000CC"/>
<rect x="210" y="100" width="2" height="2" fill="#0000CC"/>
<rect x="212" y="100" width="2" height="2" fill="#0000CC"/>
<rect x="214" y="100" width="2" height="2" fill="#0000CC"/>
<rect x="70" y="118" width="2" height="2" fill="#0000CC"/>
<rect x="68" y="100" width="2" height="2" fill="#0000CC"/>
<rect x="68" y="118" width="2" height="2" fill="#0000CC"/>
<rect x="66" y="100" width="2" height="2" fill="#0000CC"/>
<rect x="66" y="118" width="2" height="2" fill="#0000CC"/>
<rect x="64" y="100" width="2" height="2" fill="#0000CC"/>
<rect x="62" y="100" width="2" height="2" fill="#0000CC"/>
<rect x="60" y="100" width="2" height="2" fill="#0000CC"/>
<rect x="58" y="100" width="2" height="2" fill="#0000CC"/>
<rect x="56" y="100" width="2" height="2" fill="#0000CC"/>
<rect x="54" y="100" width="2" height="2" fill="#0000CC"/>
<rect x="52" y="100" width="2" height="2" fill="#0000CC"/>
<rect x="50" y="100" width="2" height="2" fill="#0000CC"/>
<rect x="48" y="100" width="2" height="2" fill="#0000CC"/>
<rect x="46" y="100" width="2" height="2" fill="#0000CC"/>
<rect x="44" y="100" width="2" height="2" fill="#0000CC"/>
<rect x="42" y="100" width="2" height="2" fill="#0000CC"/>
<path fill-rule="evenodd" clip-rule="evenodd" d="M40 102H38V104H40H40H42V102H40H40ZM34 110L34 112V114H36L36 116H38L38 114H36V112L36 110L36 108V106H38V104H36V106H34V108L34 110ZM38 116L38 118H40H42V116H40H38Z" fill="#0000CC"/>
<path fill-rule="evenodd" clip-rule="evenodd" d="M228 118L230 118L230 116L228 116L228 116L226 116L226 118L228 118L228 118ZM234 110L234 108L234 106L232 106L232 104L230 104L230 106L232 106L232 108L232 110L232 112L232 114L234 114L234 112L234 110ZM230 104L230 102L228 102L228 102L226 102L226 104L228 104L228 104L230 104ZM230 116L232 116L232 114L230 114L230 116Z" fill="#0000CC"/>
<rect x="64" y="118" width="2" height="2" fill="#0000CC"/>
<rect x="62" y="118" width="2" height="2" fill="#0000CC"/>
<rect x="60" y="118" width="2" height="2" fill="#0000CC"/>
<rect x="58" y="118" width="2" height="2" fill="#0000CC"/>
<rect x="56" y="118" width="2" height="2" fill="#0000CC"/>
<rect x="54" y="118" width="2" height="2" fill="#0000CC"/>
<rect x="52" y="118" width="2" height="2" fill="#0000CC"/>
<rect x="50" y="118" width="2" height="2" fill="#0000CC"/>
<rect x="48" y="118" width="2" height="2" fill="#0000CC"/>
<rect x="46" y="118" width="2" height="2" fill="#0000CC"/>
<rect x="44" y="118" width="2" height="2" fill="#0000CC"/>
<rect x="42" y="118" width="2" height="2" fill="#0000CC"/>
<path d="M42 102H46H226V104H230V106H232V110H230V112H226V114H46V112H42V110H40V106H42V102Z" fill="#0000CC"/>
<rect x="64" y="71" width="32" height="2" transform="rotate(-90 64 71)" fill="#0000CC"/>
<rect x="202" y="71" width="32" height="2" transform="rotate(-90 202 71)" fill="#0000CC"/>
<rect x="66" y="39" width="2" height="2" transform="rotate(-90 66 39)" fill="#0000CC"/>
<rect x="68" y="75" width="2" height="2" transform="rotate(-90 68 75)" fill="#0000CC"/>
<rect width="2" height="2" transform="matrix(-1.31134e-07 -1 -1 1.31134e-07 200 75)" fill="#0000CC"/>
<rect x="200" y="39" width="2" height="2" transform="rotate(-90 200 39)" fill="#0000CC"/>
<rect x="68" y="37" width="2" height="2" transform="rotate(-90 68 37)" fill="#0000CC"/>
<rect x="66" y="73" width="2" height="2" transform="rotate(-90 66 73)" fill="#0000CC"/>
<rect width="2" height="2" transform="matrix(-1.31134e-07 -1 -1 1.31134e-07 202 73)" fill="#0000CC"/>
<rect x="198" y="37" width="2" height="2" transform="rotate(-90 198 37)" fill="#0000CC"/>
<rect x="70" y="35" width="2.00002" height="128" transform="rotate(-90 70 35)" fill="#0000CC"/>
<rect x="70" y="77" width="2.00002" height="128" transform="rotate(-90 70 77)" fill="#0000CC"/>
<rect x="8" y="140" width="130" height="1.99998" transform="rotate(-90 8 140)" fill="#0000CC"/>
<rect y="146" width="142" height="1.99998" transform="rotate(-90 0 146)" fill="#0000CC"/>
<rect x="266" y="146" width="142" height="1.99998" transform="rotate(-90 266 146)" fill="#0000CC"/>
<rect x="258" y="142" width="248" height="2.00002" transform="rotate(180 258 142)" fill="#0000CC"/>
<rect x="258" y="10" width="248" height="2.00002" transform="rotate(180 258 10)" fill="#0000CC"/>
<rect x="264" y="2" width="260" height="2.00002" transform="rotate(180 264 2)" fill="#0000CC"/>
<rect x="264" y="150" width="260" height="2.00002" transform="rotate(180 264 150)" fill="#0000CC"/>
<rect x="2" y="148" width="2" height="2" transform="rotate(-90 2 148)" fill="#0000CC"/>
<rect x="258" y="140" width="130" height="1.99998" transform="rotate(-90 258 140)" fill="#0000CC"/>
<rect x="2" y="4" width="2" height="2" transform="rotate(-90 2 4)" fill="#0000CC"/>
<rect x="264" y="4" width="2" height="2" transform="rotate(-90 264 4)" fill="#0000CC"/>
<rect x="264" y="148" width="2" height="2" transform="rotate(-90 264 148)" fill="#0000CC"/>
</svg>
