<svg width="268" height="150" viewBox="0 0 268 150" fill="none" xmlns="http://www.w3.org/2000/svg">
<path d="M2 2H264V4H266V146H264V148H4V146H2V2Z" fill="url(#paint0_linear_3_687)"/>
<rect x="222" y="100" width="2" height="2" fill="#0000CC"/>
<rect x="224" y="100" width="2" height="2" fill="#0000CC"/>
<rect x="222" y="118" width="2" height="2" fill="#0000CC"/>
<rect x="224" y="118" width="2" height="2" fill="#0000CC"/>
<rect x="220" y="100" width="2" height="2" fill="#0000CC"/>
<rect x="220" y="118" width="2" height="2" fill="#0000CC"/>
<rect x="218" y="100" width="2" height="2" fill="#0000CC"/>
<rect x="218" y="118" width="2" height="2" fill="#0000CC"/>
<rect x="216" y="100" width="2" height="2" fill="#0000CC"/>
<rect x="216" y="118" width="2" height="2" fill="#0000CC"/>
<rect x="214" y="118" width="2" height="2" fill="#0000CC"/>
<rect x="212" y="118" width="2" height="2" fill="#0000CC"/>
<rect x="210" y="118" width="2" height="2" fill="#0000CC"/>
<rect x="208" y="118" width="2" height="2" fill="#0000CC"/>
<rect x="206" y="118" width="2" height="2" fill="#0000CC"/>
<rect x="204" y="118" width="2" height="2" fill="#0000CC"/>
<rect x="202" y="118" width="2" height="2" fill="#0000CC"/>
<rect x="200" y="118" width="2" height="2" fill="#0000CC"/>
<rect x="198" y="118" width="2" height="2" fill="#0000CC"/>
<rect x="196" y="118" width="2" height="2" fill="#0000CC"/>
<rect x="150" y="118" width="2" height="2" fill="#0000CC"/>
<rect x="152" y="118" width="2" height="2" fill="#0000CC"/>
<rect x="154" y="118" width="2" height="2" fill="#0000CC"/>
<rect x="156" y="118" width="2" height="2" fill="#0000CC"/>
<rect x="158" y="118" width="2" height="2" fill="#0000CC"/>
<rect x="160" y="118" width="2" height="2" fill="#0000CC"/>
<rect x="162" y="118" width="2" height="2" fill="#0000CC"/>
<rect x="164" y="118" width="2" height="2" fill="#0000CC"/>
<rect x="166" y="118" width="2" height="2" fill="#0000CC"/>
<rect x="168" y="118" width="2" height="2" fill="#0000CC"/>
<rect x="170" y="118" width="2" height="2" fill="#0000CC"/>
<rect x="172" y="118" width="2" height="2" fill="#0000CC"/>
<rect x="174" y="118" width="2" height="2" fill="#0000CC"/>
<rect x="176" y="118" width="2" height="2" fill="#0000CC"/>
<rect x="178" y="118" width="2" height="2" fill="#0000CC"/>
<rect x="180" y="118" width="2" height="2" fill="#0000CC"/>
<rect x="182" y="118" width="2" height="2" fill="#0000CC"/>
<rect x="184" y="118" width="2" height="2" fill="#0000CC"/>
<rect x="186" y="118" width="2" height="2" fill="#0000CC"/>
<rect x="188" y="118" width="2" height="2" fill="#0000CC"/>
<rect x="190" y="118" width="2" height="2" fill="#0000CC"/>
<rect x="192" y="118" width="2" height="2" fill="#0000CC"/>
<rect x="194" y="118" width="2" height="2" fill="#0000CC"/>
<rect x="148" y="118" width="2" height="2" fill="#0000CC"/>
<rect x="146" y="118" width="2" height="2" fill="#0000CC"/>
<rect x="144" y="118" width="2" height="2" fill="#0000CC"/>
<rect x="142" y="118" width="2" height="2" fill="#0000CC"/>
<rect x="140" y="118" width="2" height="2" fill="#0000CC"/>
<rect x="138" y="118" width="2" height="2" fill="#0000CC"/>
<rect x="136" y="118" width="2" height="2" fill="#0000CC"/>
<rect x="134" y="118" width="2" height="2" fill="#0000CC"/>
<rect x="132" y="118" width="2" height="2" fill="#0000CC"/>
<rect x="130" y="118" width="2" height="2" fill="#0000CC"/>
<rect x="128" y="118" width="2" height="2" fill="#0000CC"/>
<rect x="126" y="118" width="2" height="2" fill="#0000CC"/>
<rect x="124" y="118" width="2" height="2" fill="#0000CC"/>
<rect x="122" y="118" width="2" height="2" fill="#0000CC"/>
<rect x="120" y="118" width="2" height="2" fill="#0000CC"/>
<rect x="118" y="118" width="2" height="2" fill="#0000CC"/>
<rect x="116" y="118" width="2" height="2" fill="#0000CC"/>
<rect x="114" y="118" width="2" height="2" fill="#0000CC"/>
<rect x="112" y="118" width="2" height="2" fill="#0000CC"/>
<rect x="110" y="118" width="2" height="2" fill="#0000CC"/>
<rect x="108" y="118" width="2" height="2" fill="#0000CC"/>
<rect x="106" y="118" width="2" height="2" fill="#0000CC"/>
<rect x="104" y="118" width="2" height="2" fill="#0000CC"/>
<rect x="102" y="118" width="2" height="2" fill="#0000CC"/>
<rect x="100" y="118" width="2" height="2" fill="#0000CC"/>
<rect x="98" y="118" width="2" height="2" fill="#0000CC"/>
<rect x="96" y="118" width="2" height="2" fill="#0000CC"/>
<rect x="94" y="118" width="2" height="2" fill="#0000CC"/>
<rect x="92" y="118" width="2" height="2" fill="#0000CC"/>
<rect x="90" y="118" width="2" height="2" fill="#0000CC"/>
<rect x="88" y="118" width="2" height="2" fill="#0000CC"/>
<rect x="86" y="118" width="2" height="2" fill="#0000CC"/>
<rect x="84" y="118" width="2" height="2" fill="#0000CC"/>
<rect x="82" y="118" width="2" height="2" fill="#0000CC"/>
<rect x="80" y="118" width="2" height="2" fill="#0000CC"/>
<rect x="78" y="118" width="2" height="2" fill="#0000CC"/>
<rect x="76" y="118" width="2" height="2" fill="#0000CC"/>
<rect x="74" y="118" width="2" height="2" fill="#0000CC"/>
<rect x="72" y="118" width="2" height="2" fill="#0000CC"/>
<rect x="70" y="100" width="2" height="2" fill="#0000CC"/>
<rect x="72" y="100" width="2" height="2" fill="#0000CC"/>
<rect x="74" y="100" width="2" height="2" fill="#0000CC"/>
<rect x="76" y="100" width="2" height="2" fill="#0000CC"/>
<rect x="78" y="100" width="2" height="2" fill="#0000CC"/>
<rect x="80" y="100" width="2" height="2" fill="#0000CC"/>
<rect x="82" y="100" width="2" height="2" fill="#0000CC"/>
<rect x="84" y="100" width="2" height="2" fill="#0000CC"/>
<rect x="86" y="100" width="2" height="2" fill="#0000CC"/>
<rect x="88" y="100" width="2" height="2" fill="#0000CC"/>
<rect x="90" y="100" width="2" height="2" fill="#0000CC"/>
<rect x="92" y="100" width="2" height="2" fill="#0000CC"/>
<rect x="94" y="100" width="2" height="2" fill="#0000CC"/>
<rect x="96" y="100" width="2" height="2" fill="#0000CC"/>
<rect x="98" y="100" width="2" height="2" fill="#0000CC"/>
<rect x="100" y="100" width="2" height="2" fill="#0000CC"/>
<rect x="102" y="100" width="2" height="2" fill="#0000CC"/>
<rect x="104" y="100" width="2" height="2" fill="#0000CC"/>
<rect x="106" y="100" width="2" height="2" fill="#0000CC"/>
<rect x="108" y="100" width="2" height="2" fill="#0000CC"/>
<rect x="110" y="100" width="2" height="2" fill="#0000CC"/>
<rect x="112" y="100" width="2" height="2" fill="#0000CC"/>
<rect x="114" y="100" width="2" height="2" fill="#0000CC"/>
<rect x="116" y="100" width="2" height="2" fill="#0000CC"/>
<rect x="118" y="100" width="2" height="2" fill="#0000CC"/>
<rect x="120" y="100" width="2" height="2" fill="#0000CC"/>
<rect x="122" y="100" width="2" height="2" fill="#0000CC"/>
<rect x="124" y="100" width="2" height="2" fill="#0000CC"/>
<rect x="126" y="100" width="2" height="2" fill="#0000CC"/>
<rect x="128" y="100" width="2" height="2" fill="#0000CC"/>
<rect x="130" y="100" width="2" height="2" fill="#0000CC"/>
<rect x="132" y="100" width="2" height="2" fill="#0000CC"/>
<rect x="134" y="100" width="2" height="2" fill="#0000CC"/>
<rect x="136" y="100" width="2" height="2" fill="#0000CC"/>
<rect x="138" y="100" width="2" height="2" fill="#0000CC"/>
<rect x="140" y="100" width="2" height="2" fill="#0000CC"/>
<rect x="142" y="100" width="2" height="2" fill="#0000CC"/>
<rect x="144" y="100" width="2" height="2" fill="#0000CC"/>
<rect x="146" y="100" width="2" height="2" fill="#0000CC"/>
<rect x="148" y="100" width="2" height="2" fill="#0000CC"/>
<rect x="150" y="100" width="2" height="2" fill="#0000CC"/>
<rect x="152" y="100" width="2" height="2" fill="#0000CC"/>
<rect x="154" y="100" width="2" height="2" fill="#0000CC"/>
<rect x="156" y="100" width="2" height="2" fill="#0000CC"/>
<rect x="158" y="100" width="2" height="2" fill="#0000CC"/>
<rect x="160" y="100" width="2" height="2" fill="#0000CC"/>
<rect x="162" y="100" width="2" height="2" fill="#0000CC"/>
<rect x="164" y="100" width="2" height="2" fill="#0000CC"/>
<rect x="166" y="100" width="2" height="2" fill="#0000CC"/>
<rect x="168" y="100" width="2" height="2" fill="#0000CC"/>
<rect x="170" y="100" width="2" height="2" fill="#0000CC"/>
<rect x="172" y="100" width="2" height="2" fill="#0000CC"/>
<rect x="174" y="100" width="2" height="2" fill="#0000CC"/>
<rect x="176" y="100" width="2" height="2" fill="#0000CC"/>
<rect x="178" y="100" width="2" height="2" fill="#0000CC"/>
<rect x="180" y="100" width="2" height="2" fill="#0000CC"/>
<rect x="182" y="100" width="2" height="2" fill="#0000CC"/>
<rect x="184" y="100" width="2" height="2" fill="#0000CC"/>
<rect x="186" y="100" width="2" height="2" fill="#0000CC"/>
<rect x="188" y="100" width="2" height="2" fill="#0000CC"/>
<rect x="190" y="100" width="2" height="2" fill="#0000CC"/>
<rect x="192" y="100" width="2" height="2" fill="#0000CC"/>
<rect x="194" y="100" width="2" height="2" fill="#0000CC"/>
<rect x="196" y="100" width="2" height="2" fill="#0000CC"/>
<rect x="198" y="100" width="2" height="2" fill="#0000CC"/>
<rect x="200" y="100" width="2" height="2" fill="#0000CC"/>
<rect x="202" y="100" width="2" height="2" fill="#0000CC"/>
<rect x="204" y="100" width="2" height="2" fill="#0000CC"/>
<rect x="206" y="100" width="2" height="2" fill="#0000CC"/>
<rect x="208" y="100" width="2" height="2" fill="#0000CC"/>
<rect x="210" y="100" width="2" height="2" fill="#0000CC"/>
<rect x="212" y="100" width="2" height="2" fill="#0000CC"/>
<rect x="214" y="100" width="2" height="2" fill="#0000CC"/>
<rect x="70" y="118" width="2" height="2" fill="#0000CC"/>
<rect x="68" y="100" width="2" height="2" fill="#0000CC"/>
<rect x="68" y="118" width="2" height="2" fill="#0000CC"/>
<rect x="66" y="100" width="2" height="2" fill="#0000CC"/>
<rect x="66" y="118" width="2" height="2" fill="#0000CC"/>
<rect x="64" y="100" width="2" height="2" fill="#0000CC"/>
<rect x="62" y="100" width="2" height="2" fill="#0000CC"/>
<rect x="60" y="100" width="2" height="2" fill="#0000CC"/>
<rect x="58" y="100" width="2" height="2" fill="#0000CC"/>
<rect x="56" y="100" width="2" height="2" fill="#0000CC"/>
<rect x="54" y="100" width="2" height="2" fill="#0000CC"/>
<rect x="52" y="100" width="2" height="2" fill="#0000CC"/>
<rect x="50" y="100" width="2" height="2" fill="#0000CC"/>
<rect x="48" y="100" width="2" height="2" fill="#0000CC"/>
<rect x="46" y="100" width="2" height="2" fill="#0000CC"/>
<rect x="44" y="100" width="2" height="2" fill="#0000CC"/>
<rect x="42" y="100" width="2" height="2" fill="#0000CC"/>
<path fill-rule="evenodd" clip-rule="evenodd" d="M40 102H38V104H36V106H34V108V110V112V114H36V116H38V118H40H42V116H40H38L38 114H36V112L36 110L36 108V106H38V104H40H42V102H40Z" fill="#0000CC"/>
<path fill-rule="evenodd" clip-rule="evenodd" d="M228 118L230 118L230 116L232 116L232 114L230 114L230 116L228 116L226 116L226 118L228 118ZM234 110L234 108L234 106L232 106L232 104L230 104L230 102L228 102L226 102L226 104L228 104L230 104L230 106L232 106L232 108L232 110L232 112L232 114L234 114L234 112L234 110Z" fill="#0000CC"/>
<rect x="64" y="118" width="2" height="2" fill="#0000CC"/>
<rect x="62" y="118" width="2" height="2" fill="#0000CC"/>
<rect x="60" y="118" width="2" height="2" fill="#0000CC"/>
<rect x="58" y="118" width="2" height="2" fill="#0000CC"/>
<rect x="56" y="118" width="2" height="2" fill="#0000CC"/>
<rect x="54" y="118" width="2" height="2" fill="#0000CC"/>
<rect x="52" y="118" width="2" height="2" fill="#0000CC"/>
<rect x="50" y="118" width="2" height="2" fill="#0000CC"/>
<rect x="48" y="118" width="2" height="2" fill="#0000CC"/>
<rect x="46" y="118" width="2" height="2" fill="#0000CC"/>
<rect x="44" y="118" width="2" height="2" fill="#0000CC"/>
<rect x="42" y="118" width="2" height="2" fill="#0000CC"/>
<path d="M42 102H46H226V104H230V106H232V110H230V112H226V114H46V112H42V110H40V106H42V102Z" fill="#0000CC"/>
<rect x="64" y="71" width="32" height="2" transform="rotate(-90 64 71)" fill="#0000CC"/>
<rect x="202" y="71" width="32" height="2" transform="rotate(-90 202 71)" fill="#0000CC"/>
<rect x="66" y="39" width="2" height="2" transform="rotate(-90 66 39)" fill="#0000CC"/>
<rect x="68" y="75" width="2" height="2" transform="rotate(-90 68 75)" fill="#0000CC"/>
<rect width="2" height="2" transform="matrix(-1.31134e-07 -1 -1 1.31134e-07 200 75)" fill="#0000CC"/>
<rect x="200" y="39" width="2" height="2" transform="rotate(-90 200 39)" fill="#0000CC"/>
<rect x="68" y="37" width="2" height="2" transform="rotate(-90 68 37)" fill="#0000CC"/>
<rect x="66" y="73" width="2" height="2" transform="rotate(-90 66 73)" fill="#0000CC"/>
<rect width="2" height="2" transform="matrix(-1.31134e-07 -1 -1 1.31134e-07 202 73)" fill="#0000CC"/>
<rect x="198" y="37" width="2" height="2" transform="rotate(-90 198 37)" fill="#0000CC"/>
<rect x="70" y="35" width="2.00002" height="128" transform="rotate(-90 70 35)" fill="#0000CC"/>
<rect x="70" y="77" width="2.00002" height="128" transform="rotate(-90 70 77)" fill="#0000CC"/>
<rect x="8" y="140" width="130" height="1.99998" transform="rotate(-90 8 140)" fill="#0000CC"/>
<rect y="146" width="142" height="1.99998" transform="rotate(-90 0 146)" fill="#0000CC"/>
<rect x="266" y="146" width="142" height="1.99998" transform="rotate(-90 266 146)" fill="#0000CC"/>
<rect x="258" y="142" width="248" height="2.00002" transform="rotate(180 258 142)" fill="#0000CC"/>
<rect x="258" y="9.99994" width="248" height="2.00002" transform="rotate(180 258 9.99994)" fill="#0000CC"/>
<rect x="264" y="2.00002" width="260" height="2.00002" transform="rotate(180 264 2.00002)" fill="#0000CC"/>
<rect x="264" y="150" width="260" height="2.00002" transform="rotate(180 264 150)" fill="#0000CC"/>
<rect x="258" y="140" width="130" height="1.99998" transform="rotate(-90 258 140)" fill="#0000CC"/>
<rect x="186" y="132" width="2" height="2" fill="#0000CC"/>
<rect x="184" y="132" width="2" height="2" fill="#0000CC"/>
<rect x="190" y="128" width="2" height="2" fill="#0000CC"/>
<rect x="188" y="130" width="2" height="2" fill="#0000CC"/>
<rect x="192" y="126" width="2" height="2" fill="#0000CC"/>
<rect x="194" y="124" width="2" height="2" fill="#0000CC"/>
<rect x="196" y="122" width="2" height="2" fill="#0000CC"/>
<rect x="198" y="120" width="2" height="2" fill="#0000CC"/>
<rect x="200" y="118" width="2" height="2" fill="#0000CC"/>
<rect x="202" y="116" width="2" height="2" fill="#0000CC"/>
<rect x="204" y="114" width="2" height="2" fill="#0000CC"/>
<rect x="206" y="112" width="2" height="2" fill="#0000CC"/>
<rect x="208" y="110" width="2" height="2" fill="#0000CC"/>
<rect x="210" y="108" width="2" height="2" fill="#0000CC"/>
<rect x="212" y="106" width="2" height="2" fill="#0000CC"/>
<rect x="214" y="104" width="2" height="2" fill="#0000CC"/>
<rect x="216" y="102" width="2" height="2" fill="#0000CC"/>
<path d="M216 104V102H68V104H76V106H84V108H92V110H100V112H108V114H116V116H124V118H132V120H140V122H148V124H156V126H164V128H172V130H180V132H188V130H190V128H192V126H194V124H196V122H198V120H200V118H202V116H204V114H206V112H208V110H210V108H212V106H214V104H216Z" fill="#FFCCEE"/>
<rect x="186" y="128" width="2" height="2" fill="#0000CC"/>
<rect x="184" y="126" width="2" height="2" fill="#0000CC"/>
<rect x="182" y="124" width="2" height="2" fill="#0000CC"/>
<rect x="180" y="122" width="2" height="2" fill="#0000CC"/>
<rect x="178" y="120" width="2" height="2" fill="#0000CC"/>
<rect x="176" y="118" width="2" height="2" fill="#0000CC"/>
<rect x="174" y="116" width="2" height="2" fill="#0000CC"/>
<rect x="172" y="114" width="2" height="2" fill="#0000CC"/>
<rect x="170" y="112" width="2" height="2" fill="#0000CC"/>
<rect x="168" y="110" width="2" height="2" fill="#0000CC"/>
<rect x="166" y="110" width="2" height="2" fill="#0000CC"/>
<rect x="164" y="110" width="2" height="2" fill="#0000CC"/>
<rect x="162" y="108" width="2" height="2" fill="#0000CC"/>
<rect x="160" y="108" width="2" height="2" fill="#0000CC"/>
<rect x="158" y="108" width="2" height="2" fill="#0000CC"/>
<rect x="156" y="106" width="2" height="2" fill="#0000CC"/>
<rect x="154" y="106" width="2" height="2" fill="#0000CC"/>
<rect x="152" y="106" width="2" height="2" fill="#0000CC"/>
<rect x="150" y="104" width="2" height="2" fill="#0000CC"/>
<rect x="148" y="104" width="2" height="2" fill="#0000CC"/>
<rect x="146" y="104" width="2" height="2" fill="#0000CC"/>
<rect x="144" y="102" width="2" height="2" fill="#0000CC"/>
<rect x="142" y="102" width="2" height="2" fill="#0000CC"/>
<rect x="140" y="102" width="2" height="2" fill="#0000CC"/>
<rect x="182" y="132" width="2" height="2" fill="#0000CC"/>
<rect x="180" y="132" width="2" height="2" fill="#0000CC"/>
<rect x="178" y="130" width="2" height="2" fill="#0000CC"/>
<rect x="176" y="130" width="2" height="2" fill="#0000CC"/>
<rect x="174" y="130" width="2" height="2" fill="#0000CC"/>
<rect x="172" y="130" width="2" height="2" fill="#0000CC"/>
<rect x="170" y="128" width="2" height="2" fill="#0000CC"/>
<rect x="168" y="128" width="2" height="2" fill="#0000CC"/>
<rect x="166" y="128" width="2" height="2" fill="#0000CC"/>
<rect x="164" y="128" width="2" height="2" fill="#0000CC"/>
<rect x="162" y="126" width="2" height="2" fill="#0000CC"/>
<rect x="160" y="126" width="2" height="2" fill="#0000CC"/>
<rect x="158" y="126" width="2" height="2" fill="#0000CC"/>
<rect x="156" y="126" width="2" height="2" fill="#0000CC"/>
<rect x="154" y="124" width="2" height="2" fill="#0000CC"/>
<rect x="152" y="124" width="2" height="2" fill="#0000CC"/>
<rect x="150" y="124" width="2" height="2" fill="#0000CC"/>
<rect x="148" y="124" width="2" height="2" fill="#0000CC"/>
<rect x="146" y="122" width="2" height="2" fill="#0000CC"/>
<rect x="144" y="122" width="2" height="2" fill="#0000CC"/>
<rect x="142" y="122" width="2" height="2" fill="#0000CC"/>
<rect x="140" y="122" width="2" height="2" fill="#0000CC"/>
<rect x="138" y="120" width="2" height="2" fill="#0000CC"/>
<rect x="136" y="120" width="2" height="2" fill="#0000CC"/>
<rect x="134" y="120" width="2" height="2" fill="#0000CC"/>
<rect x="132" y="120" width="2" height="2" fill="#0000CC"/>
<rect x="130" y="118" width="2" height="2" fill="#0000CC"/>
<rect x="128" y="118" width="2" height="2" fill="#0000CC"/>
<rect x="126" y="118" width="2" height="2" fill="#0000CC"/>
<rect x="124" y="118" width="2" height="2" fill="#0000CC"/>
<rect x="122" y="116" width="2" height="2" fill="#0000CC"/>
<rect x="120" y="116" width="2" height="2" fill="#0000CC"/>
<rect x="118" y="116" width="2" height="2" fill="#0000CC"/>
<rect x="116" y="116" width="2" height="2" fill="#0000CC"/>
<rect x="114" y="114" width="2" height="2" fill="#0000CC"/>
<rect x="112" y="114" width="2" height="2" fill="#0000CC"/>
<rect x="110" y="114" width="2" height="2" fill="#0000CC"/>
<rect x="108" y="114" width="2" height="2" fill="#0000CC"/>
<rect x="106" y="112" width="2" height="2" fill="#0000CC"/>
<rect x="104" y="112" width="2" height="2" fill="#0000CC"/>
<rect x="102" y="112" width="2" height="2" fill="#0000CC"/>
<rect x="100" y="112" width="2" height="2" fill="#0000CC"/>
<rect x="98" y="110" width="2" height="2" fill="#0000CC"/>
<rect x="96" y="110" width="2" height="2" fill="#0000CC"/>
<rect x="94" y="110" width="2" height="2" fill="#0000CC"/>
<rect x="92" y="110" width="2" height="2" fill="#0000CC"/>
<rect x="90" y="108" width="2" height="2" fill="#0000CC"/>
<rect x="88" y="108" width="2" height="2" fill="#0000CC"/>
<rect x="86" y="108" width="2" height="2" fill="#0000CC"/>
<rect x="84" y="108" width="2" height="2" fill="#0000CC"/>
<rect x="82" y="106" width="2" height="2" fill="#0000CC"/>
<rect x="80" y="106" width="2" height="2" fill="#0000CC"/>
<rect x="78" y="106" width="2" height="2" fill="#0000CC"/>
<rect x="76" y="106" width="2" height="2" fill="#0000CC"/>
<rect x="74" y="104" width="2" height="2" fill="#0000CC"/>
<rect x="72" y="104" width="2" height="2" fill="#0000CC"/>
<rect x="70" y="104" width="2" height="2" fill="#0000CC"/>
<rect x="68" y="104" width="2" height="2" fill="#0000CC"/>
<rect x="66" y="102" width="2" height="2" fill="#0000CC"/>
<rect x="64" y="102" width="2" height="2" fill="#0000CC"/>
<rect x="62" y="102" width="2" height="2" fill="#0000CC"/>
<rect x="60" y="102" width="2" height="2" fill="#0000CC"/>
<path d="M85.4131 61.3333H87.2464V50.3333H85.4131V46.6667H87.2464V44.8333H90.9131V61.3333H92.7464V65H85.4131V61.3333ZM94.5869 55.8333V44.8333H98.2536V52.1667H105.587V50.3333H109.254V48.5H105.587V46.6667H109.254V44.8333H112.92V57.6667H109.254V54H105.587V55.8333H94.5869ZM96.4202 65V57.6667H100.087V61.3333H112.92V65H96.4202ZM116.587 63.1667V57.6667H118.42V52.1667H120.254V44.8333H123.92V52.1667H125.754V57.6667H127.587V63.1667H123.92V59.5H120.254V63.1667H116.587ZM131.254 65V44.8333H134.92V52.1667H136.754V55.8333H134.92V65H131.254ZM138.587 63.1667V57.6667H140.42V52.1667H142.254V44.8333H145.92V52.1667H147.754V57.6667H149.587V63.1667H145.92V59.5H142.254V63.1667H138.587ZM153.254 65V55.8333H149.587V52.1667H153.254V44.8333H156.92V65H153.254ZM160.587 48.5V46.6667H166.087V44.8333H169.754V46.6667H175.254V44.8333H178.92V48.5H180.754V52.1667H178.92V55.8333H175.254V48.5H171.587V50.3333H173.42V54H171.587V55.8333H164.254V54H162.42V50.3333H164.254V48.5H160.587ZM175.254 61.3333V59.5H166.087V61.3333H175.254ZM162.42 65V57.6667H178.92V65H162.42ZM166.087 52.1667H169.754V50.3333H166.087V52.1667Z" fill="#0000CC"/>
<rect x="2" y="4" width="2" height="2" transform="rotate(-90 2 4)" fill="#0000CC"/>
<rect x="2" y="148" width="2" height="2" transform="rotate(-90 2 148)" fill="#0000CC"/>
<rect x="264" y="4" width="2" height="2" transform="rotate(-90 264 4)" fill="#0000CC"/>
<rect x="264" y="148" width="2" height="2" transform="rotate(-90 264 148)" fill="#0000CC"/>
<defs>
<linearGradient id="paint0_linear_3_687" x1="134" y1="2" x2="134" y2="148" gradientUnits="userSpaceOnUse">
<stop stop-color="#FFFFCC"/>
<stop offset="0.67" stop-color="white"/>
</linearGradient>
</defs>
</svg>
