<svg width="268" height="150" viewBox="0 0 268 150" fill="none" xmlns="http://www.w3.org/2000/svg">
<rect x="221.974" y="100" width="2" height="2" fill="#0000CC"/>
<rect x="223.974" y="100" width="2" height="2" fill="#0000CC"/>
<rect x="221.974" y="118" width="2" height="2" fill="#0000CC"/>
<rect x="223.974" y="118" width="2" height="2" fill="#0000CC"/>
<rect x="219.974" y="100" width="2" height="2" fill="#0000CC"/>
<rect x="219.974" y="118" width="2" height="2" fill="#0000CC"/>
<rect x="217.974" y="100" width="2" height="2" fill="#0000CC"/>
<rect x="217.974" y="118" width="2" height="2" fill="#0000CC"/>
<rect x="215.974" y="100" width="2" height="2" fill="#0000CC"/>
<rect x="215.974" y="118" width="2" height="2" fill="#0000CC"/>
<rect x="213.974" y="118" width="2" height="2" fill="#0000CC"/>
<rect x="211.974" y="118" width="2" height="2" fill="#0000CC"/>
<rect x="209.974" y="118" width="2" height="2" fill="#0000CC"/>
<rect x="207.974" y="118" width="2" height="2" fill="#0000CC"/>
<rect x="205.974" y="118" width="2" height="2" fill="#0000CC"/>
<rect x="203.974" y="118" width="2" height="2" fill="#0000CC"/>
<rect x="201.974" y="118" width="2" height="2" fill="#0000CC"/>
<rect x="199.974" y="118" width="2" height="2" fill="#0000CC"/>
<rect x="197.974" y="118" width="2" height="2" fill="#0000CC"/>
<rect x="195.974" y="118" width="2" height="2" fill="#0000CC"/>
<rect x="149.974" y="118" width="2" height="2" fill="#0000CC"/>
<rect x="151.974" y="118" width="2" height="2" fill="#0000CC"/>
<rect x="153.974" y="118" width="2" height="2" fill="#0000CC"/>
<rect x="155.974" y="118" width="2" height="2" fill="#0000CC"/>
<rect x="157.974" y="118" width="2" height="2" fill="#0000CC"/>
<rect x="159.974" y="118" width="2" height="2" fill="#0000CC"/>
<rect x="161.974" y="118" width="2" height="2" fill="#0000CC"/>
<rect x="163.974" y="118" width="2" height="2" fill="#0000CC"/>
<rect x="165.974" y="118" width="2" height="2" fill="#0000CC"/>
<rect x="167.974" y="118" width="2" height="2" fill="#0000CC"/>
<rect x="169.974" y="118" width="2" height="2" fill="#0000CC"/>
<rect x="171.974" y="118" width="2" height="2" fill="#0000CC"/>
<rect x="173.974" y="118" width="2" height="2" fill="#0000CC"/>
<rect x="175.974" y="118" width="2" height="2" fill="#0000CC"/>
<rect x="177.974" y="118" width="2" height="2" fill="#0000CC"/>
<rect x="179.974" y="118" width="2" height="2" fill="#0000CC"/>
<rect x="181.974" y="118" width="2" height="2" fill="#0000CC"/>
<rect x="183.974" y="118" width="2" height="2" fill="#0000CC"/>
<rect x="185.974" y="118" width="2" height="2" fill="#0000CC"/>
<rect x="187.974" y="118" width="2" height="2" fill="#0000CC"/>
<rect x="189.974" y="118" width="2" height="2" fill="#0000CC"/>
<rect x="191.974" y="118" width="2" height="2" fill="#0000CC"/>
<rect x="193.974" y="118" width="2" height="2" fill="#0000CC"/>
<rect x="147.974" y="118" width="2" height="2" fill="#0000CC"/>
<rect x="145.974" y="118" width="2" height="2" fill="#0000CC"/>
<rect x="143.974" y="118" width="2" height="2" fill="#0000CC"/>
<rect x="141.974" y="118" width="2" height="2" fill="#0000CC"/>
<rect x="139.974" y="118" width="2" height="2" fill="#0000CC"/>
<rect x="137.974" y="118" width="2" height="2" fill="#0000CC"/>
<rect x="135.974" y="118" width="2" height="2" fill="#0000CC"/>
<rect x="133.974" y="118" width="2" height="2" fill="#0000CC"/>
<rect x="131.974" y="118" width="2" height="2" fill="#0000CC"/>
<rect x="129.974" y="118" width="2" height="2" fill="#0000CC"/>
<rect x="127.974" y="118" width="2" height="2" fill="#0000CC"/>
<rect x="125.974" y="118" width="2" height="2" fill="#0000CC"/>
<rect x="123.974" y="118" width="2" height="2" fill="#0000CC"/>
<rect x="121.974" y="118" width="2" height="2" fill="#0000CC"/>
<rect x="119.974" y="118" width="2" height="2" fill="#0000CC"/>
<rect x="117.974" y="118" width="2" height="2" fill="#0000CC"/>
<rect x="115.974" y="118" width="2" height="2" fill="#0000CC"/>
<rect x="113.974" y="118" width="2" height="2" fill="#0000CC"/>
<rect x="111.974" y="118" width="2" height="2" fill="#0000CC"/>
<rect x="109.974" y="118" width="2" height="2" fill="#0000CC"/>
<rect x="107.974" y="118" width="2" height="2" fill="#0000CC"/>
<rect x="105.974" y="118" width="2" height="2" fill="#0000CC"/>
<rect x="103.974" y="118" width="2" height="2" fill="#0000CC"/>
<rect x="101.974" y="118" width="2" height="2" fill="#0000CC"/>
<rect x="99.9737" y="118" width="2" height="2" fill="#0000CC"/>
<rect x="97.9737" y="118" width="2" height="2" fill="#0000CC"/>
<rect x="95.9737" y="118" width="2" height="2" fill="#0000CC"/>
<rect x="93.9736" y="118" width="2" height="2" fill="#0000CC"/>
<rect x="91.9737" y="118" width="2" height="2" fill="#0000CC"/>
<rect x="89.9736" y="118" width="2" height="2" fill="#0000CC"/>
<rect x="87.9737" y="118" width="2" height="2" fill="#0000CC"/>
<rect x="85.9736" y="118" width="2" height="2" fill="#0000CC"/>
<rect x="83.9736" y="118" width="2" height="2" fill="#0000CC"/>
<rect x="81.9736" y="118" width="2" height="2" fill="#0000CC"/>
<rect x="79.9736" y="118" width="2" height="2" fill="#0000CC"/>
<rect x="77.9736" y="118" width="2" height="2" fill="#0000CC"/>
<rect x="75.9736" y="118" width="2" height="2" fill="#0000CC"/>
<rect x="73.9736" y="118" width="2" height="2" fill="#0000CC"/>
<rect x="71.9736" y="118" width="2" height="2" fill="#0000CC"/>
<rect x="69.9736" y="100" width="2" height="2" fill="#0000CC"/>
<rect x="71.9736" y="100" width="2" height="2" fill="#0000CC"/>
<rect x="73.9736" y="100" width="2" height="2" fill="#0000CC"/>
<rect x="75.9736" y="100" width="2" height="2" fill="#0000CC"/>
<rect x="77.9736" y="100" width="2" height="2" fill="#0000CC"/>
<rect x="79.9736" y="100" width="2" height="2" fill="#0000CC"/>
<rect x="81.9736" y="100" width="2" height="2" fill="#0000CC"/>
<rect x="83.9736" y="100" width="2" height="2" fill="#0000CC"/>
<rect x="85.9736" y="100" width="2" height="2" fill="#0000CC"/>
<rect x="87.9737" y="100" width="2" height="2" fill="#0000CC"/>
<rect x="89.9736" y="100" width="2" height="2" fill="#0000CC"/>
<rect x="91.9737" y="100" width="2" height="2" fill="#0000CC"/>
<rect x="93.9736" y="100" width="2" height="2" fill="#0000CC"/>
<rect x="95.9737" y="100" width="2" height="2" fill="#0000CC"/>
<rect x="97.9737" y="100" width="2" height="2" fill="#0000CC"/>
<rect x="99.9737" y="100" width="2" height="2" fill="#0000CC"/>
<rect x="101.974" y="100" width="2" height="2" fill="#0000CC"/>
<rect x="103.974" y="100" width="2" height="2" fill="#0000CC"/>
<rect x="105.974" y="100" width="2" height="2" fill="#0000CC"/>
<rect x="107.974" y="100" width="2" height="2" fill="#0000CC"/>
<rect x="109.974" y="100" width="2" height="2" fill="#0000CC"/>
<rect x="111.974" y="100" width="2" height="2" fill="#0000CC"/>
<rect x="113.974" y="100" width="2" height="2" fill="#0000CC"/>
<rect x="115.974" y="100" width="2" height="2" fill="#0000CC"/>
<rect x="117.974" y="100" width="2" height="2" fill="#0000CC"/>
<rect x="119.974" y="100" width="2" height="2" fill="#0000CC"/>
<rect x="121.974" y="100" width="2" height="2" fill="#0000CC"/>
<rect x="123.974" y="100" width="2" height="2" fill="#0000CC"/>
<rect x="125.974" y="100" width="2" height="2" fill="#0000CC"/>
<rect x="127.974" y="100" width="2" height="2" fill="#0000CC"/>
<rect x="129.974" y="100" width="2" height="2" fill="#0000CC"/>
<rect x="131.974" y="100" width="2" height="2" fill="#0000CC"/>
<rect x="133.974" y="100" width="2" height="2" fill="#0000CC"/>
<rect x="135.974" y="100" width="2" height="2" fill="#0000CC"/>
<rect x="137.974" y="100" width="2" height="2" fill="#0000CC"/>
<rect x="139.974" y="100" width="2" height="2" fill="#0000CC"/>
<rect x="141.974" y="100" width="2" height="2" fill="#0000CC"/>
<rect x="143.974" y="100" width="2" height="2" fill="#0000CC"/>
<rect x="145.974" y="100" width="2" height="2" fill="#0000CC"/>
<rect x="147.974" y="100" width="2" height="2" fill="#0000CC"/>
<rect x="149.974" y="100" width="2" height="2" fill="#0000CC"/>
<rect x="151.974" y="100" width="2" height="2" fill="#0000CC"/>
<rect x="153.974" y="100" width="2" height="2" fill="#0000CC"/>
<rect x="155.974" y="100" width="2" height="2" fill="#0000CC"/>
<rect x="157.974" y="100" width="2" height="2" fill="#0000CC"/>
<rect x="159.974" y="100" width="2" height="2" fill="#0000CC"/>
<rect x="161.974" y="100" width="2" height="2" fill="#0000CC"/>
<rect x="163.974" y="100" width="2" height="2" fill="#0000CC"/>
<rect x="165.974" y="100" width="2" height="2" fill="#0000CC"/>
<rect x="167.974" y="100" width="2" height="2" fill="#0000CC"/>
<rect x="169.974" y="100" width="2" height="2" fill="#0000CC"/>
<rect x="171.974" y="100" width="2" height="2" fill="#0000CC"/>
<rect x="173.974" y="100" width="2" height="2" fill="#0000CC"/>
<rect x="175.974" y="100" width="2" height="2" fill="#0000CC"/>
<rect x="177.974" y="100" width="2" height="2" fill="#0000CC"/>
<rect x="179.974" y="100" width="2" height="2" fill="#0000CC"/>
<rect x="181.974" y="100" width="2" height="2" fill="#0000CC"/>
<rect x="183.974" y="100" width="2" height="2" fill="#0000CC"/>
<rect x="185.974" y="100" width="2" height="2" fill="#0000CC"/>
<rect x="187.974" y="100" width="2" height="2" fill="#0000CC"/>
<rect x="189.974" y="100" width="2" height="2" fill="#0000CC"/>
<rect x="191.974" y="100" width="2" height="2" fill="#0000CC"/>
<rect x="193.974" y="100" width="2" height="2" fill="#0000CC"/>
<rect x="195.974" y="100" width="2" height="2" fill="#0000CC"/>
<rect x="197.974" y="100" width="2" height="2" fill="#0000CC"/>
<rect x="199.974" y="100" width="2" height="2" fill="#0000CC"/>
<rect x="201.974" y="100" width="2" height="2" fill="#0000CC"/>
<rect x="203.974" y="100" width="2" height="2" fill="#0000CC"/>
<rect x="205.974" y="100" width="2" height="2" fill="#0000CC"/>
<rect x="207.974" y="100" width="2" height="2" fill="#0000CC"/>
<rect x="209.974" y="100" width="2" height="2" fill="#0000CC"/>
<rect x="211.974" y="100" width="2" height="2" fill="#0000CC"/>
<rect x="213.974" y="100" width="2" height="2" fill="#0000CC"/>
<rect x="69.9736" y="118" width="2" height="2" fill="#0000CC"/>
<rect x="67.9736" y="100" width="2" height="2" fill="#0000CC"/>
<rect x="67.9736" y="118" width="2" height="2" fill="#0000CC"/>
<rect x="65.9736" y="100" width="2" height="2" fill="#0000CC"/>
<rect x="65.9736" y="118" width="2" height="2" fill="#0000CC"/>
<rect x="63.9736" y="100" width="2" height="2" fill="#0000CC"/>
<rect x="61.9736" y="100" width="2" height="2" fill="#0000CC"/>
<rect x="59.9736" y="100" width="2" height="2" fill="#0000CC"/>
<rect x="57.9737" y="100" width="2" height="2" fill="#0000CC"/>
<rect x="55.9737" y="100" width="2" height="2" fill="#0000CC"/>
<rect x="53.9737" y="100" width="2" height="2" fill="#0000CC"/>
<rect x="51.9737" y="100" width="2" height="2" fill="#0000CC"/>
<rect x="49.9737" y="100" width="2" height="2" fill="#0000CC"/>
<rect x="47.9737" y="100" width="2" height="2" fill="#0000CC"/>
<rect x="45.9737" y="100" width="2" height="2" fill="#0000CC"/>
<rect x="43.9737" y="100" width="2" height="2" fill="#0000CC"/>
<rect x="41.9737" y="100" width="2" height="2" fill="#0000CC"/>
<path fill-rule="evenodd" clip-rule="evenodd" d="M39.9736 102H37.9736V104L35.9736 104V106H33.9736V108L33.9736 110L33.9736 112V114H35.9736V116H37.9736V118H39.9736H39.9736H41.9736V116H39.9736H39.9736H37.9736L37.9736 114H35.9736V112L35.9736 110L35.9736 108V106H37.9736V104H39.9736H39.9736H41.9736V102H39.9736H39.9736Z" fill="#0000CC"/>
<path fill-rule="evenodd" clip-rule="evenodd" d="M227.974 118L229.974 118L229.974 116L231.974 116L231.974 114L233.974 114L233.974 112L233.974 110L233.974 108L233.974 106L231.974 106L231.974 104L229.974 104L229.974 102L227.974 102L225.974 102L225.974 104L227.974 104L229.974 104L229.974 106L231.974 106L231.974 108L231.974 110L231.974 112L231.974 114L229.974 114L229.974 116L227.974 116L227.974 116L225.974 116L225.974 118L227.974 118L227.974 118Z" fill="#0000CC"/>
<rect x="63.9736" y="118" width="2" height="2" fill="#0000CC"/>
<rect x="61.9736" y="118" width="2" height="2" fill="#0000CC"/>
<rect x="59.9736" y="118" width="2" height="2" fill="#0000CC"/>
<rect x="57.9737" y="118" width="2" height="2" fill="#0000CC"/>
<rect x="55.9737" y="118" width="2" height="2" fill="#0000CC"/>
<rect x="53.9737" y="118" width="2" height="2" fill="#0000CC"/>
<rect x="51.9737" y="118" width="2" height="2" fill="#0000CC"/>
<rect x="49.9737" y="118" width="2" height="2" fill="#0000CC"/>
<rect x="47.9737" y="118" width="2" height="2" fill="#0000CC"/>
<rect x="45.9737" y="118" width="2" height="2" fill="#0000CC"/>
<rect x="43.9737" y="118" width="2" height="2" fill="#0000CC"/>
<rect x="41.9737" y="118" width="2" height="2" fill="#0000CC"/>
<path d="M41.9736 102H45.9736H225.974V104H229.974V106H231.974V110H229.974V112H225.974V114H45.9736V112H41.9736V110H39.9736V106H41.9736V102Z" fill="#0000CC"/>
<rect x="64" y="71" width="32" height="2" transform="rotate(-90 64 71)" fill="#0000CC"/>
<rect x="202" y="71" width="32" height="2" transform="rotate(-90 202 71)" fill="#0000CC"/>
<rect x="66" y="39" width="2" height="2" transform="rotate(-90 66 39)" fill="#0000CC"/>
<rect x="68" y="75" width="2" height="2" transform="rotate(-90 68 75)" fill="#0000CC"/>
<rect width="2" height="2" transform="matrix(-1.31134e-07 -1 -1 1.31134e-07 200 75)" fill="#0000CC"/>
<rect x="200" y="39" width="2" height="2" transform="rotate(-90 200 39)" fill="#0000CC"/>
<rect x="68" y="37" width="2" height="2" transform="rotate(-90 68 37)" fill="#0000CC"/>
<rect x="66" y="73" width="2" height="2" transform="rotate(-90 66 73)" fill="#0000CC"/>
<rect width="2" height="2" transform="matrix(-1.31134e-07 -1 -1 1.31134e-07 202 73)" fill="#0000CC"/>
<rect x="198" y="37" width="2" height="2" transform="rotate(-90 198 37)" fill="#0000CC"/>
<rect x="70" y="35" width="2.00002" height="128" transform="rotate(-90 70 35)" fill="#0000CC"/>
<rect x="70" y="77" width="2.00002" height="128" transform="rotate(-90 70 77)" fill="#0000CC"/>
<rect x="8" y="140" width="130" height="1.99998" transform="rotate(-90 8 140)" fill="#0000CC"/>
<rect y="146" width="142" height="1.99998" transform="rotate(-90 0 146)" fill="#0000CC"/>
<rect x="266" y="146" width="142" height="1.99998" transform="rotate(-90 266 146)" fill="#0000CC"/>
<rect x="258" y="142" width="248" height="2.00002" transform="rotate(180 258 142)" fill="#0000CC"/>
<rect x="258" y="9.99994" width="248" height="2.00002" transform="rotate(180 258 9.99994)" fill="#0000CC"/>
<rect x="264" y="2" width="260" height="2.00002" transform="rotate(180 264 2)" fill="#0000CC"/>
<rect x="264" y="150" width="260" height="2.00002" transform="rotate(180 264 150)" fill="#0000CC"/>
<rect x="258" y="140" width="130" height="1.99998" transform="rotate(-90 258 140)" fill="#0000CC"/>
<rect x="264" y="148" width="2" height="2" transform="rotate(-90 264 148)" fill="#0000CC"/>
<rect x="264" y="4" width="2" height="2" transform="rotate(-90 264 4)" fill="#0000CC"/>
<rect x="2" y="4" width="2" height="2" transform="rotate(-90 2 4)" fill="#0000CC"/>
<rect x="2" y="148" width="2" height="2" transform="rotate(-90 2 148)" fill="#0000CC"/>
<rect x="185.973" y="131.998" width="2" height="2" fill="#0000CC"/>
<rect x="183.973" y="131.998" width="2" height="2" fill="#0000CC"/>
<rect x="189.973" y="127.998" width="2" height="2" fill="#0000CC"/>
<rect x="187.973" y="129.998" width="2" height="2" fill="#0000CC"/>
<rect x="191.973" y="125.998" width="2" height="2" fill="#0000CC"/>
<rect x="193.973" y="123.998" width="2" height="2" fill="#0000CC"/>
<rect x="195.973" y="121.998" width="2" height="2" fill="#0000CC"/>
<rect x="197.973" y="119.998" width="2" height="2" fill="#0000CC"/>
<rect x="199.973" y="117.998" width="2" height="2" fill="#0000CC"/>
<rect x="201.973" y="115.998" width="2" height="2" fill="#0000CC"/>
<rect x="203.973" y="113.998" width="2" height="2" fill="#0000CC"/>
<rect x="205.973" y="111.998" width="2" height="2" fill="#0000CC"/>
<rect x="207.973" y="109.998" width="2" height="2" fill="#0000CC"/>
<rect x="209.973" y="107.998" width="2" height="2" fill="#0000CC"/>
<rect x="211.973" y="105.998" width="2" height="2" fill="#0000CC"/>
<rect x="213.973" y="103.998" width="2" height="2" fill="#0000CC"/>
<rect x="215.973" y="101.998" width="2" height="2" fill="#0000CC"/>
<path d="M215.973 103.998V101.998H67.9727V103.998H75.9727V105.998H83.9727V107.998H91.9727V109.998H99.9727V111.998H107.973V113.998H115.973V115.998H123.973V117.998H131.973V119.998H139.973V121.998H147.973V123.998H155.973V125.998H163.973V127.998H171.973V129.998H179.973V131.998H187.973V129.998H189.973V127.998H191.973V125.998H193.973V123.998H195.973V121.998H197.973V119.998H199.973V117.998H201.973V115.998H203.973V113.998H205.973V111.998H207.973V109.998H209.973V107.998H211.973V105.998H213.973V103.998H215.973Z" fill="#FFCCEE"/>
<rect x="185.973" y="127.998" width="2" height="2" fill="#0000CC"/>
<rect x="183.973" y="125.998" width="2" height="2" fill="#0000CC"/>
<rect x="181.973" y="123.998" width="2" height="2" fill="#0000CC"/>
<rect x="179.973" y="121.998" width="2" height="2" fill="#0000CC"/>
<rect x="177.973" y="119.998" width="2" height="2" fill="#0000CC"/>
<rect x="175.973" y="117.998" width="2" height="2" fill="#0000CC"/>
<rect x="173.973" y="115.998" width="2" height="2" fill="#0000CC"/>
<rect x="171.973" y="113.998" width="2" height="2" fill="#0000CC"/>
<rect x="169.973" y="111.998" width="2" height="2" fill="#0000CC"/>
<rect x="167.973" y="109.998" width="2" height="2" fill="#0000CC"/>
<rect x="165.973" y="109.998" width="2" height="2" fill="#0000CC"/>
<rect x="163.973" y="109.998" width="2" height="2" fill="#0000CC"/>
<rect x="161.973" y="107.998" width="2" height="2" fill="#0000CC"/>
<rect x="159.973" y="107.998" width="2" height="2" fill="#0000CC"/>
<rect x="157.973" y="107.998" width="2" height="2" fill="#0000CC"/>
<rect x="155.973" y="105.998" width="2" height="2" fill="#0000CC"/>
<rect x="153.973" y="105.998" width="2" height="2" fill="#0000CC"/>
<rect x="151.973" y="105.998" width="2" height="2" fill="#0000CC"/>
<rect x="149.973" y="103.998" width="2" height="2" fill="#0000CC"/>
<rect x="147.973" y="103.998" width="2" height="2" fill="#0000CC"/>
<rect x="145.973" y="103.998" width="2" height="2" fill="#0000CC"/>
<rect x="143.973" y="101.998" width="2" height="2" fill="#0000CC"/>
<rect x="141.973" y="101.998" width="2" height="2" fill="#0000CC"/>
<rect x="139.973" y="101.998" width="2" height="2" fill="#0000CC"/>
<rect x="181.973" y="131.998" width="2" height="2" fill="#0000CC"/>
<rect x="179.973" y="131.998" width="2" height="2" fill="#0000CC"/>
<rect x="177.973" y="129.998" width="2" height="2" fill="#0000CC"/>
<rect x="175.973" y="129.998" width="2" height="2" fill="#0000CC"/>
<rect x="173.973" y="129.998" width="2" height="2" fill="#0000CC"/>
<rect x="171.973" y="129.998" width="2" height="2" fill="#0000CC"/>
<rect x="169.973" y="127.998" width="2" height="2" fill="#0000CC"/>
<rect x="167.973" y="127.998" width="2" height="2" fill="#0000CC"/>
<rect x="165.973" y="127.998" width="2" height="2" fill="#0000CC"/>
<rect x="163.973" y="127.998" width="2" height="2" fill="#0000CC"/>
<rect x="161.973" y="125.998" width="2" height="2" fill="#0000CC"/>
<rect x="159.973" y="125.998" width="2" height="2" fill="#0000CC"/>
<rect x="157.973" y="125.998" width="2" height="2" fill="#0000CC"/>
<rect x="155.973" y="125.998" width="2" height="2" fill="#0000CC"/>
<rect x="153.973" y="123.998" width="2" height="2" fill="#0000CC"/>
<rect x="151.973" y="123.998" width="2" height="2" fill="#0000CC"/>
<rect x="149.973" y="123.998" width="2" height="2" fill="#0000CC"/>
<rect x="147.973" y="123.998" width="2" height="2" fill="#0000CC"/>
<rect x="145.973" y="121.998" width="2" height="2" fill="#0000CC"/>
<rect x="143.973" y="121.998" width="2" height="2" fill="#0000CC"/>
<rect x="141.973" y="121.998" width="2" height="2" fill="#0000CC"/>
<rect x="139.973" y="121.998" width="2" height="2" fill="#0000CC"/>
<rect x="137.973" y="119.998" width="2" height="2" fill="#0000CC"/>
<rect x="135.973" y="119.998" width="2" height="2" fill="#0000CC"/>
<rect x="133.973" y="119.998" width="2" height="2" fill="#0000CC"/>
<rect x="131.973" y="119.998" width="2" height="2" fill="#0000CC"/>
<rect x="129.973" y="117.998" width="2" height="2" fill="#0000CC"/>
<rect x="127.973" y="117.998" width="2" height="2" fill="#0000CC"/>
<rect x="125.973" y="117.998" width="2" height="2" fill="#0000CC"/>
<rect x="123.973" y="117.998" width="2" height="2" fill="#0000CC"/>
<rect x="121.973" y="115.998" width="2" height="2" fill="#0000CC"/>
<rect x="119.973" y="115.998" width="2" height="2" fill="#0000CC"/>
<rect x="117.973" y="115.998" width="2" height="2" fill="#0000CC"/>
<rect x="115.973" y="115.998" width="2" height="2" fill="#0000CC"/>
<rect x="113.973" y="113.998" width="2" height="2" fill="#0000CC"/>
<rect x="111.973" y="113.998" width="2" height="2" fill="#0000CC"/>
<rect x="109.973" y="113.998" width="2" height="2" fill="#0000CC"/>
<rect x="107.973" y="113.998" width="2" height="2" fill="#0000CC"/>
<rect x="105.973" y="111.998" width="2" height="2" fill="#0000CC"/>
<rect x="103.973" y="111.998" width="2" height="2" fill="#0000CC"/>
<rect x="101.973" y="111.998" width="2" height="2" fill="#0000CC"/>
<rect x="99.9727" y="111.998" width="2" height="2" fill="#0000CC"/>
<rect x="97.9727" y="109.998" width="2" height="2" fill="#0000CC"/>
<rect x="95.9727" y="109.998" width="2" height="2" fill="#0000CC"/>
<rect x="93.9727" y="109.998" width="2" height="2" fill="#0000CC"/>
<rect x="91.9727" y="109.998" width="2" height="2" fill="#0000CC"/>
<rect x="89.9727" y="107.998" width="2" height="2" fill="#0000CC"/>
<rect x="87.9727" y="107.998" width="2" height="2" fill="#0000CC"/>
<rect x="85.9727" y="107.998" width="2" height="2" fill="#0000CC"/>
<rect x="83.9727" y="107.998" width="2" height="2" fill="#0000CC"/>
<rect x="81.9727" y="105.998" width="2" height="2" fill="#0000CC"/>
<rect x="79.9727" y="105.998" width="2" height="2" fill="#0000CC"/>
<rect x="77.9727" y="105.998" width="2" height="2" fill="#0000CC"/>
<rect x="75.9727" y="105.998" width="2" height="2" fill="#0000CC"/>
<rect x="73.9727" y="103.998" width="2" height="2" fill="#0000CC"/>
<rect x="71.9727" y="103.998" width="2" height="2" fill="#0000CC"/>
<rect x="69.9727" y="103.998" width="2" height="2" fill="#0000CC"/>
<rect x="67.9727" y="103.998" width="2" height="2" fill="#0000CC"/>
<rect x="65.9727" y="101.998" width="2" height="2" fill="#0000CC"/>
<rect x="63.9727" y="101.998" width="2" height="2" fill="#0000CC"/>
<rect x="61.9727" y="101.998" width="2" height="2" fill="#0000CC"/>
<rect x="59.9727" y="101.998" width="2" height="2" fill="#0000CC"/>
<rect x="248" y="24" width="2" height="2" transform="rotate(180 248 24)" fill="#FF44CC"/>
<rect x="246" y="24" width="2" height="2" transform="rotate(180 246 24)" fill="#FF44CC"/>
<rect x="246" y="22" width="2" height="2" transform="rotate(180 246 22)" fill="#FF44CC"/>
<rect x="248" y="22" width="2" height="2" transform="rotate(180 248 22)" fill="#FF44CC"/>
<rect x="248" y="20" width="2" height="2" transform="rotate(180 248 20)" fill="#FF44CC"/>
<rect x="246" y="20" width="2" height="2" transform="rotate(180 246 20)" fill="#FF44CC"/>
<rect x="244" y="22" width="2" height="2" transform="rotate(180 244 22)" fill="#FF44CC"/>
<rect x="244" y="24" width="2" height="2" transform="rotate(180 244 24)" fill="#FF44CC"/>
<rect x="246" y="26" width="2" height="2" transform="rotate(180 246 26)" fill="#FF44CC"/>
<rect x="248" y="26" width="2" height="2" transform="rotate(180 248 26)" fill="#FF44CC"/>
<rect x="250" y="24" width="2" height="2" transform="rotate(180 250 24)" fill="#FF44CC"/>
<rect x="250" y="22" width="2" height="2" transform="rotate(180 250 22)" fill="#FF44CC"/>
</svg>
