<svg width="28" height="28" viewBox="0 0 28 28" fill="none" xmlns="http://www.w3.org/2000/svg">
<path fill-rule="evenodd" clip-rule="evenodd" d="M22.5 4.5H23.5V5.5H22.5V4.5ZM21.5 6.5V5.5H22.5V6.5H21.5ZM20.5 7.5V6.5H21.5V7.5H20.5ZM19.5 8.5V7.5H20.5V8.5H19.5ZM18.5 9.5V8.5H19.5V9.5H18.5ZM17.5 10.5V9.5H18.5V10.5H17.5ZM16.5 11.5V10.5H17.5V11.5H16.5ZM15.5 12.5V11.5H16.5V12.5H15.5ZM14.5 13.5V12.5H15.5V13.5H14.5ZM14.5 14.5H13.5V13.5H14.5V14.5ZM15.5 15.5H14.5V14.5H15.5V15.5ZM16.5 16.5H15.5V15.5H16.5V16.5ZM17.5 17.5H16.5V16.5H17.5V17.5ZM18.5 18.5H17.5V17.5H18.5V18.5ZM19.5 19.5H18.5V18.5H19.5V19.5ZM20.5 20.5H19.5V19.5H20.5V20.5ZM21.5 21.5H20.5V20.5H21.5V21.5ZM22.5 22.5V21.5H21.5V22.5H22.5ZM22.5 22.5V23.5H23.5V22.5H22.5Z" fill="#0000CC"/>
<path fill-rule="evenodd" clip-rule="evenodd" d="M4.5 23.5L5.5 23.5L5.5 22.5L6.5 22.5L6.5 21.5L7.5 21.5L7.5 20.5L8.5 20.5L8.5 19.5L9.5 19.5L9.5 18.5L10.5 18.5L10.5 17.5L11.5 17.5L11.5 16.5L12.5 16.5L12.5 15.5L13.5 15.5L13.5 14.5L12.5 14.5L12.5 15.5L11.5 15.5L11.5 16.5L10.5 16.5L10.5 17.5L9.5 17.5L9.5 18.5L8.5 18.5L8.5 19.5L7.5 19.5L7.5 20.5L6.5 20.5L6.5 21.5L5.5 21.5L5.5 22.5L4.5 22.5L4.5 23.5ZM12.5 13.5L13.5 13.5L13.5 12.5L12.5 12.5L12.5 11.5L11.5 11.5L11.5 10.5L10.5 10.5L10.5 9.5L9.5 9.5L9.5 8.5L8.5 8.5L8.5 7.5L7.5 7.5L7.5 6.5L6.5 6.5L6.5 5.5L5.5 5.5L5.5 4.5L4.5 4.5L4.5 5.5L5.5 5.5L5.5 6.5L6.5 6.5L6.5 7.5L7.5 7.5L7.5 8.5L8.5 8.5L8.5 9.5L9.5 9.5L9.5 10.5L10.5 10.5L10.5 11.5L11.5 11.5L11.5 12.5L12.5 12.5L12.5 13.5Z" fill="#0000CC"/>
</svg>
